<svg width="130" height="130" viewBox="0 0 130 130" fill="none" xmlns="http://www.w3.org/2000/svg">
<rect width="130" height="130" rx="18" fill="#309CF2"/>
<path d="M10.5511 50.1818L15.9964 59.6019H16.2294L21.733 50.1818H29.799L20.8011 65.0909L30.0902 80H21.8203L16.2294 70.478H15.9964L10.4055 80H2.19389L11.4393 65.0909L2.42685 50.1818H10.5511Z" fill="#0E2F56"/>
<path d="M65.4006 65.0909C65.4006 68.3717 64.7697 71.1526 63.5078 73.4336C62.246 75.7146 60.5376 77.4472 58.3828 78.6314C56.2377 79.8156 53.8305 80.4077 51.1612 80.4077C48.4822 80.4077 46.0702 79.8107 43.9251 78.6168C41.7799 77.4229 40.0765 75.6903 38.8146 73.419C37.5625 71.138 36.9364 68.362 36.9364 65.0909C36.9364 61.8101 37.5625 59.0292 38.8146 56.7482C40.0765 54.4672 41.7799 52.7346 43.9251 51.5504C46.0702 50.3662 48.4822 49.7741 51.1612 49.7741C53.8305 49.7741 56.2377 50.3662 58.3828 51.5504C60.5376 52.7346 62.246 54.4672 63.5078 56.7482C64.7697 59.0292 65.4006 61.8101 65.4006 65.0909ZM58.0334 65.0909C58.0334 63.1496 57.7567 61.5092 57.2035 60.1697C56.6599 58.8303 55.8737 57.8159 54.8448 57.1268C53.8256 56.4376 52.5978 56.093 51.1612 56.093C49.7344 56.093 48.5065 56.4376 47.4776 57.1268C46.4487 57.8159 45.6577 58.8303 45.1044 60.1697C44.5608 61.5092 44.2891 63.1496 44.2891 65.0909C44.2891 67.0322 44.5608 68.6726 45.1044 70.0121C45.6577 71.3516 46.4487 72.3659 47.4776 73.055C48.5065 73.7442 49.7344 74.0888 51.1612 74.0888C52.5978 74.0888 53.8256 73.7442 54.8448 73.055C55.8737 72.3659 56.6599 71.3516 57.2035 70.0121C57.7567 68.6726 58.0334 67.0322 58.0334 65.0909ZM97.7521 65.0909C97.7521 68.3717 97.1212 71.1526 95.8594 73.4336C94.5975 75.7146 92.8892 77.4472 90.7344 78.6314C88.5893 79.8156 86.1821 80.4077 83.5128 80.4077C80.8338 80.4077 78.4218 79.8107 76.2766 78.6168C74.1315 77.4229 72.428 75.6903 71.1662 73.419C69.9141 71.138 69.288 68.362 69.288 65.0909C69.288 61.8101 69.9141 59.0292 71.1662 56.7482C72.428 54.4672 74.1315 52.7346 76.2766 51.5504C78.4218 50.3662 80.8338 49.7741 83.5128 49.7741C86.1821 49.7741 88.5893 50.3662 90.7344 51.5504C92.8892 52.7346 94.5975 54.4672 95.8594 56.7482C97.1212 59.0292 97.7521 61.8101 97.7521 65.0909ZM90.3849 65.0909C90.3849 63.1496 90.1083 61.5092 89.555 60.1697C89.0115 58.8303 88.2253 57.8159 87.1964 57.1268C86.1772 56.4376 84.9493 56.093 83.5128 56.093C82.0859 56.093 80.8581 56.4376 79.8292 57.1268C78.8003 57.8159 78.0092 58.8303 77.456 60.1697C76.9124 61.5092 76.6406 63.1496 76.6406 65.0909C76.6406 67.0322 76.9124 68.6726 77.456 70.0121C78.0092 71.3516 78.8003 72.3659 79.8292 73.055C80.8581 73.7442 82.0859 74.0888 83.5128 74.0888C84.9493 74.0888 86.1772 73.7442 87.1964 73.055C88.2253 72.3659 89.0115 71.3516 89.555 70.0121C90.1083 68.6726 90.3849 67.0322 90.3849 65.0909Z" fill="#0E2F56"/>
<path d="M105 54.1932C107.756 53.0659 113.711 50.3942 113.711 50.3942L114.5 62L117.164 48.8055L121 47C121 47 125 47 127 47V79.875L121 79.875L119.29 79.3211V64L116.5 78L112.5 77L110 63.5L109 75.9886L105 74.6932V54.1932Z" fill="#0E2F56"/>
<path d="M56.1374 86.1826L43.9571 94.4125L46.0431 88.6183C46.6771 86.857 45.372 85 43.5 85H41C37.134 85 34 81.866 34 78V52C34 48.134 37.134 45 41 45H94C97.866 45 101 48.134 101 52V78C101 81.866 97.866 85 94 85H60C58.6233 85 57.2781 85.4119 56.1374 86.1826Z" stroke="#0E2F56" stroke-width="4"/>
</svg>
